<?xml version="1.0" encoding="utf-8" ?><!-- created by svgstack.com | Attribution is required. --><svg xmlns="http://www.w3.org/2000/svg" xmlns:xlink="http://www.w3.org/1999/xlink" width="1024" height="1024"><path transform="scale(2 2)" d="M265.812 437.98C256.631 437.678 247.585 438.021 238.401 437.139C189.861 432.478 144.247 407.635 113.594 369.76C30.4504 267.027 84.607 109.612 211.533 78.9212C223.166 76.1082 234.734 74.7477 246.629 73.7284C295.989 73.6176 340.229 86.5791 377.565 120.498C421.161 160.104 443.319 218.274 436.948 276.614C428.748 351.711 371.788 415.921 298.132 433.044C287.33 435.555 276.722 436.497 265.812 437.98ZM252.135 84.2134C207.448 84.5387 164.405 104.041 133.198 135.702C72.9744 196.802 67.0869 299.693 123.71 365.139C126.481 368.341 129.447 371.376 131.928 374.817C140.553 339.348 161.991 321.058 197.803 318.539C211.318 317.588 218.138 316.683 223.626 301.252C207.479 282.564 200.769 275.122 191.307 250.048C174.046 246.769 171.314 228.795 184.637 219.121C179.174 192.093 174.141 170.502 190.644 145.609C209.578 117.048 260.009 105.399 287.064 128.643C295.699 136.062 297.809 132.84 306.493 137.262C337.131 153.164 337.541 191.472 329.165 220.561C340.409 231.667 336.182 246.248 320.452 250.048C311.941 271.774 304.865 283.753 288.848 299.998C293.645 318.742 302.643 317.626 317.626 318.529C337.98 319.755 356.783 331.029 368.496 347.528C375.181 339.69 381.298 330.662 385.35 321.16C386.992 317.309 388.523 311.438 390.506 308.159C393.659 302.945 399.03 306.455 400.42 310.838C396.563 326.654 385.112 345.345 374.032 357.141C376.783 363.017 378.722 368.475 380.189 374.817C386.211 367.197 392.653 360.021 398.093 351.943C470.337 244.67 402.261 102.586 277.401 85.5641C269.41 84.4747 260.163 83.0958 252.135 84.2134ZM248.953 127.013C217.415 127.316 189.198 149.873 189.617 182.818C189.716 190.576 191.809 198.001 192.628 205.664C202.988 186.326 205.792 187.52 223.472 185.099C239.171 182.95 259.449 179.528 272.74 170.536L273.053 170.326C287.733 160.306 280.765 161.128 291.351 171.532C308.354 188.244 313.95 179.724 322.249 207.441C325.844 183.166 322.43 149.315 293.185 143.794C284.107 142.08 287.207 143.071 280.572 136.998C272.647 129.744 259.657 126.429 248.953 127.013ZM281.563 176.702C266.201 189.501 230.788 196.984 212.123 196.685C200.213 210.587 201.402 212.047 195.527 226.638C192.748 227.368 188.864 227.482 187.298 230.268C181.673 240.273 197.497 237.213 199.723 242.378C209.401 264.833 214.989 282.25 236.897 297.912C270.408 318.498 297.089 280.972 308.003 252.749C309.323 249.335 310.465 244.419 312.157 241.412C314.552 237.157 321.271 241.052 323.966 236.61C325.69 233.771 325.26 229.704 322.06 228.228C313.561 224.307 315.309 230.455 313.78 218.26C310.267 190.257 299.965 194.053 284.376 179.285C283.564 178.515 282.59 177.123 281.563 176.702ZM279.267 307.385C262.506 316.538 248.628 317.862 232.514 307.385C228.673 315.446 223.857 321.116 216.271 325.8C220.493 330.294 225.909 333.801 231.428 336.488C252.834 346.778 278.898 342.891 295.639 325.8C289.517 322.222 285.208 317.441 281.654 311.356C281.264 310.689 279.746 307.476 279.267 307.385ZM307.631 328.71C306.026 329.867 304.786 331.352 303.394 332.739C273.145 362.884 232.348 357.761 203.807 328.71C170.033 329.651 144.218 348.375 141.13 383.316C159.286 401.039 187.979 415.459 212.123 421.585C267.02 436.533 328.741 422.417 370.302 383.316C370.027 377.256 368.909 371.193 366.287 365.69C362.966 368.532 354.329 376.878 349.795 376.387C346.004 375.978 344.149 370.875 346.668 368.046C350.293 363.975 356.719 360.722 361.219 355.698C349.073 337.765 329.294 327.273 307.631 328.71Z"/></svg> 